<svg xmlns="http://www.w3.org/2000/svg" xmlns:xlink="http://www.w3.org/1999/xlink" width="200" height="200" viewBox="0 0 200 200">
  <defs>
    <clipPath id="clip-path">
      <circle id="Ellipse_25" data-name="Ellipse 25" cx="112.5" cy="112.5" r="112.5" transform="translate(0 -0.437)" fill="#fff" stroke="#707070" stroke-width="1"/>
    </clipPath>
    <clipPath id="clip-path-2">
      <rect id="Rectangle_39" data-name="Rectangle 39" width="411" height="411" transform="translate(0.194 -0.26)"/>
    </clipPath>
    <linearGradient id="linear-gradient" x1="0.5" y1="0.626" x2="0.5" y2="-1.172" gradientUnits="objectBoundingBox">
      <stop offset="0" stop-color="#2b275d"/>
      <stop offset="1" stop-color="#98affc"/>
    </linearGradient>
    <clipPath id="clip-path-3">
      <path id="Ellipse_15" data-name="Ellipse 15" d="M79.612.645A68.426,68.426,0,0,0,48.879,7.259,78.319,78.319,0,0,0,23.541,26.607,93.049,93.049,0,0,0,6.334,55.818a106.127,106.127,0,0,0,0,72.227,94.246,94.246,0,0,0,17.2,29.389,79.429,79.429,0,0,0,25.338,19.6,68.528,68.528,0,0,0,61.158-.57,79.075,79.075,0,0,0,24.613-19.687,93.615,93.615,0,0,0,16.479-28.88,106.185,106.185,0,0,0,0-70.488,94.8,94.8,0,0,0-16.479-29.053A80.211,80.211,0,0,0,110.034,8.428,69.231,69.231,0,0,0,79.612.645Z" transform="translate(0 -0.632)" fill="#2b275d" stroke="#707070" stroke-width="1"/>
    </clipPath>
    <clipPath id="clip-path-4">
      <path id="Ellipse_14" data-name="Ellipse 14" d="M79.612.645A68.426,68.426,0,0,0,48.879,7.259,78.319,78.319,0,0,0,23.541,26.607,93.049,93.049,0,0,0,6.334,55.818a106.127,106.127,0,0,0,0,72.227,94.246,94.246,0,0,0,17.2,29.389,79.429,79.429,0,0,0,25.338,19.6,68.528,68.528,0,0,0,61.158-.57,79.075,79.075,0,0,0,24.613-19.687,93.615,93.615,0,0,0,16.479-28.88,106.185,106.185,0,0,0,0-70.488,94.8,94.8,0,0,0-16.479-29.053A80.211,80.211,0,0,0,110.034,8.428,69.231,69.231,0,0,0,79.612.645Z" transform="translate(0 -0.632)" fill="#fff" stroke="#707070" stroke-width="1"/>
    </clipPath>
    <clipPath id="clip-Artboard_9">
      <rect width="200" height="200"/>
    </clipPath>
  </defs>
  <g id="Artboard_9" data-name="Artboard – 9" clip-path="url(#clip-Artboard_9)">
    <g id="Mask_Group_17" data-name="Mask Group 17" transform="translate(-12 -11.563)" clip-path="url(#clip-path)">
      <g id="Artboard_2" data-name="Artboard – 2" transform="translate(-93.194 -102.176)" clip-path="url(#clip-path-2)">
        <path id="Ellipse_17" data-name="Ellipse 17" d="M78.314,0c43.252,0,78.314,35.711,78.314,79.763s-35.062,79.763-78.314,79.763S0,123.815,0,79.763,35.062,0,78.314,0Z" transform="translate(131.186 135.691)" stroke="#2b275d" stroke-width="10" fill="url(#linear-gradient)"/>
        <g id="Group_48" data-name="Group 48" transform="translate(122.724 118.051)">
          <g id="Mask_Group_14" data-name="Mask Group 14" transform="translate(0 7.637)" clip-path="url(#clip-path-3)">
            <path id="Path_37" data-name="Path 37" d="M71.955,92.525,0,0,17.515,112.3,0,178.461l143.156-1.545Z" transform="translate(21.461 7.231)" fill="#2b275d"/>
          </g>
          <g id="Mask_Group_13" data-name="Mask Group 13" transform="translate(5.092 0)" clip-path="url(#clip-path-4)">
            <path id="Path_36" data-name="Path 36" d="M71.955,92.522,0,0,17.515,112.3,0,178.461l143.156-1.545Z" transform="translate(21.461 7.231)" fill="#7086ce"/>
          </g>
        </g>
      </g>
    </g>
    <g id="Ellipse_16" data-name="Ellipse 16" transform="translate(96 138.612)" fill="#98affc">
      <path d="M 28.25581359863281 51.51162719726562 C 25.11409568786621 51.51162719726562 22.06900215148926 50.89743804931641 19.20513153076172 49.68611907958984 C 16.43644905090332 48.51506042480469 13.94886112213135 46.83754348754883 11.81147289276123 44.70015335083008 C 9.674084663391113 42.56276702880859 7.996566772460938 40.07518005371094 6.825507640838623 37.30648422241211 C 5.614190101623535 34.44261169433594 5.000001907348633 31.39753150939941 5.000001907348633 28.25581359863281 C 5.000001907348633 25.11409568786621 5.614190101623535 22.06900215148926 6.825507640838623 19.20513153076172 C 7.996566772460938 16.43644905090332 9.674084663391113 13.94886112213135 11.81147289276123 11.81147289276123 C 13.94886112213135 9.674084663391113 16.43644905090332 7.996566772460938 19.20513153076172 6.825507640838623 C 22.06900215148926 5.614190101623535 25.11409568786621 5.000001907348633 28.25581359863281 5.000001907348633 C 31.39753150939941 5.000001907348633 34.44261169433594 5.614190101623535 37.30648422241211 6.825507640838623 C 40.07518005371094 7.996566772460938 42.56276702880859 9.674084663391113 44.70015335083008 11.81147289276123 C 46.83754348754883 13.94886112213135 48.51506042480469 16.43644905090332 49.68611907958984 19.20513153076172 C 50.89743804931641 22.06900215148926 51.51162719726562 25.11409568786621 51.51162719726562 28.25581359863281 C 51.51162719726562 31.39753150939941 50.89743804931641 34.44261169433594 49.68611907958984 37.30648422241211 C 48.51506042480469 40.07518005371094 46.83754348754883 42.56276702880859 44.70015335083008 44.70015335083008 C 42.56276702880859 46.83754348754883 40.07518005371094 48.51506042480469 37.30648422241211 49.68611907958984 C 34.44261169433594 50.89743804931641 31.39753150939941 51.51162719726562 28.25581359863281 51.51162719726562 Z" stroke="none"/>
      <path d="M 28.25581359863281 9.999996185302734 C 18.18952178955078 9.999996185302734 9.999996185302734 18.18952178955078 9.999996185302734 28.25581359863281 C 9.999996185302734 38.32210540771484 18.18952178955078 46.51163101196289 28.25581359863281 46.51163101196289 C 38.32210540771484 46.51163101196289 46.51163101196289 38.32210540771484 46.51163101196289 28.25581359863281 C 46.51163101196289 18.18952178955078 38.32210540771484 9.999996185302734 28.25581359863281 9.999996185302734 M 28.25581359863281 -3.814697265625e-06 C 43.86106872558594 -3.814697265625e-06 56.51163101196289 12.65055847167969 56.51163101196289 28.25581359863281 C 56.51163101196289 43.86106872558594 43.86106872558594 56.51163101196289 28.25581359863281 56.51163101196289 C 12.65055847167969 56.51163101196289 -3.814697265625e-06 43.86106872558594 -3.814697265625e-06 28.25581359863281 C -3.814697265625e-06 12.65055847167969 12.65055847167969 -3.814697265625e-06 28.25581359863281 -3.814697265625e-06 Z" stroke="none" fill="#2b275d"/>
    </g>
    <path id="Path_48" data-name="Path 48" d="M30.791,20.392a12.076,12.076,0,0,0,.1-1.6,9.861,9.861,0,0,0-.119-1.6l3.465-2.7a.837.837,0,0,0,.2-1.041L31.166,7.777A.834.834,0,0,0,30.159,7.4L26.079,9.04a12.059,12.059,0,0,0-2.765-1.6L22.7,3.1a.826.826,0,0,0-.819-.7H15.325a.809.809,0,0,0-.8.7l-.615,4.336a12.325,12.325,0,0,0-2.765,1.6L7.063,7.4a.815.815,0,0,0-1.007.376L2.8,13.445A.776.776,0,0,0,3,14.486l3.465,2.7a9.5,9.5,0,0,0-.034,3.209l-3.465,2.7a.837.837,0,0,0-.2,1.041L6.039,29.8a.834.834,0,0,0,1.007.376l4.08-1.639a12.059,12.059,0,0,0,2.765,1.6l.615,4.336a.839.839,0,0,0,.819.7H21.88a.8.8,0,0,0,.8-.7l.615-4.336a11.708,11.708,0,0,0,2.765-1.6l4.08,1.639a.815.815,0,0,0,1.007-.376l3.278-5.667a.79.79,0,0,0-.2-1.041ZM18.6,24.933a6.145,6.145,0,1,1,6.145-6.145A6.163,6.163,0,0,1,18.6,24.933Z" transform="translate(105.654 148.081)" fill="#2b275d" stroke="#98affc" stroke-width="1"/>
  </g>
</svg>
